<?xml version="1.0" encoding="UTF-8" standalone="no"?>
<svg width="17px" height="17px" viewBox="0 0 17 17" version="1.1" xmlns="http://www.w3.org/2000/svg" xmlns:xlink="http://www.w3.org/1999/xlink">
    <!-- Generator: Sketch 49.1 (51147) - http://www.bohemiancoding.com/sketch -->
    <title>Rectangle 403</title>
    <desc>Created with Sketch.</desc>
    <defs></defs>
    <g id="Symbols" stroke="none" stroke-width="1" fill="none" fill-rule="evenodd">
        <g id="menu" transform="translate(-1156.000000, -18.000000)" fill="#FFFFFF">
            <g id="Group-16">
                <g id="Group-2" transform="translate(473.000000, 16.000000)">
                    <path d="M693.651691,13.4134158 L699.080271,18.8414998 C699.290895,19.0521045 699.630922,19.0535661 699.843023,18.8414846 C700.053655,18.6308716 700.050988,18.2867333 699.843038,18.0788024 L694.414458,12.6507184 C695.369007,11.5231955 695.944587,10.0646597 695.944587,8.47170232 C695.944587,4.89747982 693.046842,2 689.472293,2 C685.897744,2 683,4.89747982 683,8.47170232 C683,12.0459248 685.897744,14.9434046 689.472293,14.9434046 C691.065396,14.9434046 692.524065,14.3678778 693.651691,13.4134158 L693.651691,13.4134158 L693.651691,13.4134158 Z M684,8.5 C684,5.46243388 686.462434,3 689.5,3 C692.537566,3 695,5.46243388 695,8.5 C695,11.5375661 692.537566,14 689.5,14 C686.462434,14 684,11.5375661 684,8.5 L684,8.5 Z" id="Rectangle-403"></path>
                </g>
            </g>
        </g>
    </g>
</svg>